<?xml version="1.0" encoding="utf-8"?>
<svg version="1.1" xmlns:xlink="http://www.w3.org/1999/xlink" width="24px" height="24px" xmlns="http://www.w3.org/2000/svg">
  <g transform="matrix(1 0 0 1 -436 -9 )">
    <path d="M 0 8  L 24 8  L 24 21.6744185930233  C 23.9069767325581 22.907426406599  22.907426406599 23.9069767325581  21.6744185930233 24  L 2.32558140697674 24  C 1.09257359340102 23.9069767325581  0.0930232674418601 22.907426406599  0 21.6744185930233  L 0 8  Z M 10.5116278953488 12  L 10.5116278953488 9.76744186046512  L 4.55813954651163 9.76744186046512  L 4.55813954651163 12  L 10.5116278953488 12  Z M 4.29544186046512 0  L 19.7261395465116 0  C 20.5716351852135 0.0930519965532618  21.3445723067576 0.570700051278957  21.7227906976744 1.32688370930233  L 23.6710697790698 5.2226976627907  L 23.7067907093023 5.30232558139535  L 0.377302325581395 5.30232558139535  L 2.28539536046512 1.35441861627907  C 2.65797643062317 0.583192533231599  3.4389336479579 0.0931064573189841  4.29544186046512 0  Z " fill-rule="nonzero" fill="#aaaaaa" stroke="none" transform="matrix(1 0 0 1 436 9 )" />
  </g>
</svg>