<?xml version="1.0" encoding="utf-8"?>
<svg version="1.1" xmlns:xlink="http://www.w3.org/1999/xlink" width="23px" height="24px" xmlns="http://www.w3.org/2000/svg">
  <g transform="matrix(1 0 0 1 -1127 -9 )">
    <path d="M 9.72269630694444 0.222608706521739  L 13.3515851958333 0.228173902173913  C 14.4783064627807 0.230089807690064  15.391121494222 1.16219699697114  15.3926222222222 2.31234782608696  L 15.3939851958333 2.91617390217391  C 16.0969564262047 3.21394916524132  16.7628673710016 3.59574377672213  17.3777777777778 4.05356520652174  L 17.8636740847222 3.76834783695652  C 18.8402223312946 3.19468180389434  20.0873716149703 3.53566380276336  20.6522963069444 4.53078260869565  L 22.4711703597222 7.73634782608696  C 23.0127707588875 8.69096576137296  22.7330143662295 9.91097778789246  21.8326222222222 10.5210434673913  L 21.7215407513889 10.5906087065217  L 21.2336 10.8779130326087  C 21.3174222222222 11.6681739130435  21.3072 12.4709565  21.1974814708333 13.2688695652174  L 21.5423111111111 13.4726956630435  C 22.4798811446008 14.0251198348416  22.8330771832086 15.2278361727655  22.3478222222222 16.215652173913  L 22.2912592486111 16.3234782717391  L 20.5875555555556 19.335652173913  C 20.0463844687385 20.2927179925982  18.8681679080686 20.6532583722734  17.9004740847222 20.1579130434783  L 17.7941629736111 20.0994782608696  L 17.3232592486111 19.8212174021739  C 16.7310968278121 20.2561323530156  16.0920036657671 20.6202527852796  15.4185185291667 20.9064347934783  L 15.4185185291667 21.7342608586957  C 15.4199217189309 22.8371184887505  14.5804620643665 23.7507145697041  13.5021925819444 23.8198260978261  L 13.3720296402778 23.8240000108696  L 9.74314075138889 23.8184347826087  C 8.61668504227126 23.8165199210512  7.70397956580416 22.8848357063472  7.70210369305556 21.7349565326087  L 7.70005924861111 20.7366956413044  C 7.13766753212416 20.4671312659356  6.60204420392208 20.1428486109086  6.10062222222222 19.7683478152174  L 5.2310518625 20.2789565217391  C 4.2543254567971 20.8525054601846  3.00712136192686 20.5111973370717  2.44242964027778 19.515826076087  L 0.623555555555555 16.3109565326087  C 0.0815187274614819 15.356182057383  0.361318647093083 14.1356753792308  1.26210369305555 13.5255652173913  L 1.37318519583333 13.4560000108696  L 2.2577481375 12.9363478369565  C 2.1896 12.2754782608696  2.18619258194444 11.6069565326087  2.25161480416667 10.9398260869565  L 1.2696 10.3603478152174  C 0.331778526672704 9.808156380286  -0.0217325815085471 8.60538471310971  0.463407418055555 7.61739130434783  L 0.5206518625 7.50956520652174  L 2.22435555555556 4.49739130434783  C 2.76552664237262 3.54032548566268  3.94374320304249 3.17978510598744  4.91143702638889 3.67513043478261  L 5.01706666666667 3.7335652173913  L 5.87300741805556 4.23791305434782  C 6.43083417400294 3.79390557868699  7.03540634619096 3.41475306532123  7.67552591527778 3.10747826086956  L 7.67552591527778 2.3130434673913  C 7.67376222062359 1.20991770508696  8.51331966592906 0.295910445423957  9.5918518625 0.226782619565217  L 9.72201480416667 0.222608706521739  Z M 13.7890963069444 8.30052172826087  C 13.1677583524161 7.93375158163254  12.4626933129835 7.74063659506739  11.7449492392615 7.74063659506739  C 10.2849997530755 7.74063659506739  8.93612184079426 8.53628380793065  8.20708147083333 9.82747826086957  C 7.07950528999267 11.8250143272953  7.74941111631066 14.3773373103377  9.70429630694445 15.531826076087  C 10.3258255541168 15.8989021302363  11.0311893206901 16.0921869041443  11.7492490278799 16.0921869041443  C 13.2091096415359 16.0921869041443  14.5579195491545 15.2966357395296  15.2869925819444 14.0055652173913  C 16.4144542577048 12.0078471731322  15.7442288048303 9.4554681054912  13.7890963069444 8.30121740217391  Z M 10.7272 13.7259130434783  C 9.74863420705689 13.1479180016774  9.41324860054491 11.8702942509214  9.97757035972222 10.8702608804348  C 10.5171818793544 9.91369447327658  11.6944862579174 9.55349468966541  12.6605629736111 10.0493912934783  L 12.7661925819444 10.1071304347826  L 12.8684148041667 10.1718260869565  C 13.7730862784297 10.7811397206628  14.0567591330696 12.0040460058457  13.5158222222222 12.9627825978261  C 13.1519519997077 13.6081362408368  12.4780742615266 14.0059080930356  11.7486306890227 14.0059080930356  C 11.389955012222 14.0059080930356  11.0376255403581 13.9093273764043  10.7272 13.7259130434783  Z " fill-rule="nonzero" fill="#aaaaaa" stroke="none" transform="matrix(1 0 0 1 1127 9 )" />
  </g>
</svg>