<?xml version="1.0" encoding="utf-8"?>
<svg version="1.1" xmlns:xlink="http://www.w3.org/1999/xlink" width="20px" height="20px" xmlns="http://www.w3.org/2000/svg">
  <g transform="matrix(1 0 0 1 -18 -10 )">
    <path d="M 28 10  C 33.6 10  38 14.4  38 20  C 38 25.6  33.6 30  28 30  C 22.4 30  18 25.6  18 20  C 18 14.4  22.4 10  28 10  Z " fill-rule="nonzero" fill="#ffffff" stroke="none" />
    <path d="M 28 10.5  C 33.32 10.5  37.5 14.68  37.5 20  C 37.5 25.32  33.32 29.5  28 29.5  C 22.68 29.5  18.5 25.32  18.5 20  C 18.5 14.68  22.68 10.5  28 10.5  Z " stroke-width="1" stroke="#797979" fill="none" />
  </g>
</svg>