<?xml version="1.0" encoding="utf-8"?>
<svg version="1.1" xmlns:xlink="http://www.w3.org/1999/xlink" width="10px" height="10px" xmlns="http://www.w3.org/2000/svg">
  <g transform="matrix(1 0 0 1 -11 -8 )">
    <path d="M 16 8  C 18.8 8  21 10.2  21 13  C 21 15.8  18.8 18  16 18  C 13.2 18  11 15.8  11 13  C 11 10.2  13.2 8  16 8  Z " fill-rule="nonzero" fill="#ffffff" stroke="none" />
    <path d="M 16 8.5  C 18.52 8.5  20.5 10.48  20.5 13  C 20.5 15.52  18.52 17.5  16 17.5  C 13.48 17.5  11.5 15.52  11.5 13  C 11.5 10.48  13.48 8.5  16 8.5  Z " stroke-width="1" stroke="#797979" fill="none" />
  </g>
</svg>