<?xml version="1.0" encoding="utf-8"?>
<svg version="1.1" xmlns:xlink="http://www.w3.org/1999/xlink" width="66px" height="66px" xmlns="http://www.w3.org/2000/svg">
  <g transform="matrix(1 0 0 1 -185 -791 )">
    <path d="M 218 791  C 236.48 791  251 805.52  251 824  C 251 842.48  236.48 857  218 857  C 199.52 857  185 842.48  185 824  C 185 805.52  199.52 791  218 791  Z " fill-rule="nonzero" fill="#ffffff" stroke="none" />
    <path d="M 218 791.5  C 236.2 791.5  250.5 805.8  250.5 824  C 250.5 842.2  236.2 856.5  218 856.5  C 199.8 856.5  185.5 842.2  185.5 824  C 185.5 805.8  199.8 791.5  218 791.5  Z " stroke-width="1" stroke="#797979" fill="none" />
  </g>
</svg>