<?xml version="1.0" encoding="utf-8"?>
<svg version="1.1" xmlns:xlink="http://www.w3.org/1999/xlink" width="15px" height="15px" xmlns="http://www.w3.org/2000/svg">
  <g transform="matrix(1 0 0 1 -141 -49 )">
    <path d="M 148.5 49  C 152.7 49  156 52.3  156 56.5  C 156 60.7  152.7 64  148.5 64  C 144.3 64  141 60.7  141 56.5  C 141 52.3  144.3 49  148.5 49  Z " fill-rule="nonzero" fill="#ffffff" stroke="none" />
    <path d="M 148.5 49.5  C 152.42 49.5  155.5 52.58  155.5 56.5  C 155.5 60.42  152.42 63.5  148.5 63.5  C 144.58 63.5  141.5 60.42  141.5 56.5  C 141.5 52.58  144.58 49.5  148.5 49.5  Z " stroke-width="1" stroke="#797979" fill="none" />
  </g>
</svg>