<?xml version="1.0" encoding="utf-8"?>
<svg version="1.1" xmlns:xlink="http://www.w3.org/1999/xlink" width="12px" height="12px" xmlns="http://www.w3.org/2000/svg">
  <g transform="matrix(1 0 0 1 -211 -22 )">
    <path d="M 217 22  C 220.36 22  223 24.64  223 28  C 223 31.36  220.36 34  217 34  C 213.64 34  211 31.36  211 28  C 211 24.64  213.64 22  217 22  Z " fill-rule="nonzero" fill="#ffffff" stroke="none" />
    <path d="M 217 22.5  C 220.08 22.5  222.5 24.92  222.5 28  C 222.5 31.08  220.08 33.5  217 33.5  C 213.92 33.5  211.5 31.08  211.5 28  C 211.5 24.92  213.92 22.5  217 22.5  Z " stroke-width="1" stroke="#797979" fill="none" />
  </g>
</svg>