<?xml version="1.0" encoding="utf-8"?>
<svg version="1.1" xmlns:xlink="http://www.w3.org/1999/xlink" width="12px" height="12px" xmlns="http://www.w3.org/2000/svg">
  <g transform="matrix(1 0 0 1 -227 -123 )">
    <path d="M 11.9224045563328 11.5014760197395  C 11.9224045563328 11.3946311691341  11.8813441867859 11.2917986155806  11.8075752212389 11.2138947368421  L 9.78180530973451 9.06526315789474  C 10.6053597671253 8.08623337095705  11.0557921263503 6.85155489067873  11.0544424778761 5.57684210526316  C 11.0544424778761 2.55915789473684  8.57713274336283 0.103578947368421  5.53189380530973 0.103578947368421  C 2.48750442477876 0.103578947368421  0.0101946902654856 2.55873684210526  0.0101946902654856 5.57684210526316  C 0.0101946902654856 8.59494736842105  2.48750442477876 11.0501052631579  5.5323185840708 11.0501052631579  C 6.32105616311773 11.0515511679522  7.10083307327829 10.8843831280478  7.81847787610619 10.56  C 7.97474255018318 10.4936874619247  8.07607841394684 10.341419527078  8.07607841394684 10.1729277389506  C 8.07607841394684 9.94038679165346  7.88589848467143 9.75187510737168  7.6512996528849 9.75187510737168  C 7.58739720582759 9.75187510737168  7.52431821200218 9.76616629788274  7.4667610619469 9.79368421052632  C 6.85931735963561 10.06795187864  6.1993863122536 10.2092638223696  5.53189380530973 10.208  C 2.95561061946903 10.208  0.85975221238938 8.13052631578947  0.85975221238938 5.57684210526316  C 0.85975221238938 3.02315789473684  2.95561061946903 0.945684210526316  5.53189380530973 0.945684210526316  C 8.1086017699115 0.945684210526316  10.2048849557522 3.02315789473684  10.2048849557522 5.57684210526316  C 10.2048849557522 6.77894736842105  9.74230088495575 7.91789473684211  8.90293805309734 8.784  C 8.82675334382291 8.86245159240775  8.78419362005555 8.9671087467783  8.78419362005555 9.07600035525206  C 8.78419362005555 9.19046335767363  8.83120675557226 9.29999338654914  8.91440707964602 9.37936842105263  C 8.92715044247788 9.39157894736842  8.94371681415929 9.39621052631579  8.9581592920354 9.40673684210526  C 8.96962831858407 9.42357894736842  8.97557522123894 9.44294736842105  8.99001769911504 9.4581052631579  L 11.1869734513274 11.7882105263158  C 11.2670420858903 11.8736092274201  11.379446141917 11.9219921364676  11.4970619469027 11.9216842105263  C 11.4975330805626 11.9216857675446  11.4980042165145 11.9216865460553  11.498475352793 11.9216865460553  C 11.732604986916 11.9216865460553  11.9224045563328 11.7335518851421  11.9224045563328 11.5014760197395  Z " fill-rule="nonzero" fill="#000000" stroke="none" transform="matrix(1 0 0 1 227 123 )" />
  </g>
</svg>