<?xml version="1.0" encoding="utf-8"?>
<svg version="1.1" xmlns:xlink="http://www.w3.org/1999/xlink" width="64px" height="64px" xmlns="http://www.w3.org/2000/svg">
  <g transform="matrix(1 0 0 1 -992 -373 )">
    <path d="M 63.5826086875 32  C 63.5826086875 29.634782625  61.7739130625 27.6869565  59.2695651875 28  L 36 28  L 36 4.5913043125  C 36.173913 2.2260869375  34.2260869375 0.2782608125  31.8608695 0.2782608125  C 29.495652125 0.2782608125  27.547826 2.226086875  28 4.5913043125  L 28 28  L 4.4521738125 28  C 2.0869564375 27.6869565  0.1391303125 29.6347825625  0.1391303125 32  C 0.1391303125 34.365217375  2.086956375 36.3130435  4.4521738125 36  L 28 36  L 28 59.4086956875  C 27.547826 61.7739130625  29.4956520625 63.7217391875  31.8608695 63.7217391875  C 34.226086875 63.7217391875  36.173913 61.773913125  36 59.4086956875  L 36 36  L 59.2695651875 36  C 61.6347825625 36.3130435  63.5826086875 34.3652174375  63.5826086875 32  Z " fill-rule="nonzero" fill="#7f7f7f" stroke="none" transform="matrix(1 0 0 1 992 373 )" />
  </g>
</svg>