<?xml version="1.0" encoding="utf-8"?>
<svg version="1.1" xmlns:xlink="http://www.w3.org/1999/xlink" width="16px" height="16px" xmlns="http://www.w3.org/2000/svg">
  <g transform="matrix(1 0 0 1 -507 -71 )">
    <path d="M 0.115942021739131 8  C 0.115942021739131 3.64568115217391  3.64568115217391 0.115942021739131  8 0.115942021739131  C 12.3543188478261 0.115942021739131  15.8840579782609 3.64568115217391  15.8840579782609 8  C 15.8840579782609 12.3543188478261  12.3543188478261 15.8840579782609  8 15.8840579782609  C 3.64568115217391 15.8840579782609  0.115942021739131 12.3543188478261  0.115942021739131 8  Z M 14.4927536304348 8  C 14.4927536304348 4.41414491304348  11.5858550869565 1.50724636956522  8 1.50724636956522  C 4.41414493478261 1.50724636956522  1.50724636956522 4.41414491304348  1.50724636956522 8  C 1.50724636956522 11.5858550869565  4.41414491304348 14.4927536304348  8 14.4927536304348  C 11.5858550869565 14.4927536304348  14.4927536304348 11.5858550869565  14.4927536304348 8  Z M 7.30434782608696 3.82608695652174  L 8.69565217391304 3.82608695652174  L 8.69565217391304 7.30434782608696  L 12.1739130434783 7.30434782608696  L 12.1739130434783 8.69565217391304  L 8.69565217391304 8.69565217391304  L 8.69565217391304 12.1739130434783  L 7.30434782608696 12.1739130434783  L 7.30434782608696 8.69518841304348  L 3.82608695652174 8.69565217391304  L 3.82608695652174 7.30434782608696  L 7.30434782608696 7.30388406521739  L 7.30434782608696 3.82608695652174  Z " fill-rule="nonzero" fill="#000000" stroke="none" transform="matrix(1 0 0 1 507 71 )" />
  </g>
</svg>