<?xml version="1.0" encoding="utf-8"?>
<svg version="1.1" xmlns:xlink="http://www.w3.org/1999/xlink" width="48px" height="37px" xmlns="http://www.w3.org/2000/svg">
  <g transform="matrix(1 0 0 1 -636 -232 )">
    <path d="M 48 33.0329896907217  C 48 35.0518927835052  46.3848 36.6948453608248  44.4 36  L 18 36  C 16.0152 36.6948453608247  14.4 35.0518927835052  14.4 33.0329896907216  C 14.4 32.9158103092784  14.4264 30.1279175257732  16.6176 27.3815257731959  C 17.8776 25.8044865979381  19.596 24.5545731958763  21.7248 23.6659628865979  C 24.2952 22.591818556701  27.4848 22.0498639175258  31.2 22.0498639175258  C 34.9152 22.0498639175258  38.1024 22.5942597938144  40.6752 23.6659628865979  C 42.804 24.5545731958763  44.5224 25.8044865979381  45.7824 27.3815257731959  C 47.976 30.1279175257732  48 32.9158103092784  48 33.0329896907217  Z M 18.5736 28.8072082474227  C 16.8768 30.8578474226804  16.8024 32.9548701030928  16.8 33.0403134020619  C 16.8024 33.7116536082474  17.34 34.2536082474227  18 34  L 44.4 34  C 45.06 34.2536082474227  45.5976 33.709212371134  45.6 33.0403134020619  C 45.5976 32.9548701030928  45.5232 30.855406185567  43.8264 28.8072082474227  C 41.4888 25.9826969072165  37.1232 24.4911010309278  31.2 24.4911010309278  C 25.2768 24.4911010309278  20.9112 25.9851381443299  18.5736 28.8072082474227  Z M 40.8 9.84123711340206  C 40.8 15.226606185567  36.4944 19.6061855670103  31.2 19.6061855670103  C 25.9056 19.6061855670103  21.6 15.226606185567  21.6 9.84123711340206  C 21.6 4.45586804123711  25.9056 0.0762886597938155  31.2 0.0762886597938155  C 36.4944 0.0762886597938155  40.8 4.45586804123711  40.8 9.84123711340206  Z M 38.4 9.84123711340206  C 38.4 5.80343092783505  35.1696 2.51752577319588  31.2 2.51752577319588  C 27.2304 2.51752577319588  24 5.80343092783505  24 9.84123711340206  C 24 13.8790432989691  27.2304 17.1649484536082  31.2 17.1649484536082  C 35.1696 17.1649484536082  38.4 13.8790432989691  38.4 9.84123711340206  Z M 10.8048 36.6972865979382  L 10.8 36.6948453608247  L 3.6 36.6948453608247  C 1.6152 36.6948453608247  0 35.0518927835052  0 33.0329896907216  C 0 32.9426639175258  0.0192000000000007 30.7699628865979  1.5912 28.6387628865979  C 2.4984 27.4059381443299  3.7368 26.4318845360825  5.2704 25.7385731958763  C 7.104 24.9085525773196  9.3696 24.4886597938144  12.0024 24.4886597938144  C 12.432 24.4886597938144  12.8568 24.5008659793814  13.2672 24.5228371134021  C 13.9296 24.5594556701031  14.436 25.1331463917526  14.4024 25.8069278350516  C 14.3688 26.4807092783505  13.8024 26.9982515463918  13.14 26.9616329896907  C 12.7728 26.9421030927835  12.3912 26.9323381443299  12.0048 26.9323381443299  C 2.6592 26.9323381443299  2.412 32.7400412371134  2.4048 33.0427546391753  C 2.4072 33.7116536082474  2.9448 34.2560494845361  3.6048 34.2560494845361  L 10.8048 34.2560494845361  C 11.4672 34.2560494845361  12.0048 34.8028865979381  12.0048 35.4766680412371  C 12.0048 36.1504494845361  11.4672 36.6972865979382  10.8048 36.6972865979382  Z M 19.2 14.7237113402062  C 19.2 18.7615175257732  15.9696 22.0474226804124  12 22.0474226804124  C 8.0304 22.0474226804124  4.8 18.7615175257732  4.8 14.7237113402062  C 4.8 10.6859051546392  8.0304 7.4  12 7.4  C 15.9696 7.4  19.2 10.6859051546392  19.2 14.7237113402062  Z M 16.8 14.7237113402062  C 16.8 12.0310268041237  14.6472 9.84123711340206  12 9.84123711340206  C 9.3528 9.84123711340206  7.2 12.0310268041237  7.2 14.7237113402062  C 7.2 17.4163958762887  9.3528 19.6061855670103  12 19.6061855670103  C 14.6472 19.6061855670103  16.8 17.4163958762887  16.8 14.7237113402062  Z " fill-rule="nonzero" fill="#000000" stroke="none" transform="matrix(1 0 0 1 636 232 )" />
  </g>
</svg>