<?xml version="1.0" encoding="utf-8"?>
<svg version="1.1" xmlns:xlink="http://www.w3.org/1999/xlink" width="48px" height="48px" xmlns="http://www.w3.org/2000/svg">
  <g transform="matrix(1 0 0 1 -786 -226 )">
    <path d="M 1.554526368 9  L 46.687565232 9  C 47.383613232 8.5823414516129  47.948645472 8.01150977419355  47.949599952 7.30638629032258  C 47.950554336 6.60126275806452  47.387069664 6.02886338709677  46.691021616 6  L 1.5579828 6  C 0.861934752 5.96423337096774  0.29690256 6.53506509677419  0.29594808 7.24018858064516  C 0.2949936 7.94531206451613  0.85847832 8.51771143548387  1.554526368 9  Z M 9 12.1291959677419  L 9 46.4688468870968  L 8.662411296 47.7587835  L 9.935678208 47.7455196774194  L 40.001369184 47.432320016129  L 41.248717632 47.4193261451613  L 41 46.1556472741935  L 41 12.4547079193548  C 41.248717632 11.7495838064516  40.68445872 11.1779676774194  39.988409952 11.1779676774194  C 39.292361232 11.1779676774194  38.72810232 11.7495838064516  38 12.4547079193548  L 38 46.1556472741935  L 39.97545072 44.8789744354839  L 9.909759792 45.1921741451613  L 12 46.4688468870968  L 12 12.1291959677419  C 11.183026704 11.4240717580645  10.618767792 10.8524557258065  9.922719024 10.8524557258065  C 9.226670304 10.8524557258065  8.662411296 11.4240717580645  9 12.1291959677419  Z M 31 16.4579835  L 31 39.4393077580645  C 31.507692336 40.1444319193548  32.071951248 40.716048  32.768000016 40.716048  C 33.464048736 40.716048  34.028307648 40.1444319193548  34 39.4393077580645  L 34 16.4579835  C 34.028307648 15.7528592419355  33.464048736 15.1812432580645  32.768000016 15.1812432580645  C 32.071951248 15.1812432580645  31.507692336 15.7528592419355  31 16.4579835  Z M 17 16.4579835  L 17 39.4393077580645  C 16.383999984 40.1444319193548  16.94825904 40.716048  17.644307664 40.716048  C 18.340356384 40.716048  18.90461544 40.1444319193548  19 39.4393077580645  L 19 16.4579835  C 18.90461544 15.7528592419355  18.340356384 15.1812432580645  17.644307664 15.1812432580645  C 16.94825904 15.1812432580645  16.383999984 15.7528592419355  17 16.4579835  Z M 24 16.4579835  L 24 39.4393077580645  C 23.94584616 40.1444319193548  24.510105072 40.716048  25.20615384 40.716048  C 25.90220256 40.716048  26.466461472 40.1444319193548  26 39.4393077580645  L 26 16.4579835  C 26.466461472 15.7528592419355  25.90220256 15.1812432580645  25.20615384 15.1812432580645  C 24.510105072 15.1812432580645  23.94584616 15.7528592419355  24 16.4579835  Z M 18.82309224 6.45052262903226  L 18.82309224 4.09944082258064  C 18.82309224 3.39017753225806  19.38041592 2.82404066129032  20.08326432 2.82404066129032  L 29.900438208 2.82404066129032  C 30.595629456 2.82404066129032  31.160610288 3.39493064516129  31.160610288 4.0911089516129  L 31.160610288 6.75701008064516  L 33.681225744 6.75701008064516  L 33.681225744 4.0911089516129  C 33.681225744 1.98322291935484  31.9862904 0.270560177419355  29.900438208 0.270560177419355  L 20.08326432 0.270560177419355  C 17.986772496 0.270560177419355  16.302476784 1.98149051612903  16.302476784 4.09944082258064  L 16.302476784 6.45052262903226  L 18.82309224 6.45052262903226  Z " fill-rule="nonzero" fill="#000000" stroke="none" transform="matrix(1 0 0 1 786 226 )" />
  </g>
</svg>