<?xml version="1.0" encoding="utf-8"?>
<svg version="1.1" xmlns:xlink="http://www.w3.org/1999/xlink" width="48px" height="48px" xmlns="http://www.w3.org/2000/svg">
  <g transform="matrix(1 0 0 1 -711 -226 )">
    <path d="M 37 24  L 37 48  L 0 48  L 0 4  L 28.9717073326829 4  C 29.5231687960976 4.0195121795122  29.9707317073171 4.46707509073171  29.9707317073171 5.01853655414634  C 29.9707317073171 5.56999801756097  29.5231687960976 6.01756092878049  28.9717073326829 6  L 2 6  L 2 46  L 35 46  L 35 24  C 34.9658536741463 23.4485385365854  35.4134165853659 23.0009756253659  35.9648780487805 23.0009756253659  C 36.5163395121951 23.0009756253659  36.9639024234146 23.4485385365854  37 24  Z M 22.0624546185366 27.2548214634146  C 21.9205931707317 27.3257522107317  21.7677424390244 27.3597190243902  21.6158907160976 27.3597190243902  C 21.3561443590244 27.3597190243902  21.1003941307317 27.2588175453659  20.9085814478049 27.067004862439  C 20.6048780487805 26.7633014634146  20.5289521639024 26.2987551219512  20.7207648468293 25.9141307004878  L 23.5460058380488 20.2626497092683  C 23.5939590087805 20.1667433678049  23.6568975453659 20.0788292370732  23.7338224390244 20.0029033521951  L 42.8081951063415 0.929529740487805  C 43.4006165853659 0.336109252682927  44.1229112195122 0.0234146341463415  44.8951570887805 0.0234146341463415  C 46.1069736585366 0.0234146341463415  47.2468605190244 0.806649740487805  47.7293892995122 1.97151219512195  C 48.1899395590244 3.0844253502439  47.9351883395122 4.27925853658537  47.0470556253659 5.16739120390244  L 27.9736819668293 24.240764862439  C 27.8977561287805 24.3166907004878  27.8098419512195 24.3796292370732  27.7139356097561 24.4285814634146  L 22.0624546185366 27.2548214634146  Z M 44.2208156253659 2.3421502595122  L 25.2623297560976 21.3006360819512  L 23.8497092839024 24.1268760819512  L 26.6759492839024 22.7132565541463  L 45.6344351063415 3.75477073170732  C 45.9491277892683 3.44007804878049  46.0330458380488 3.09741269853659  45.8841911882927 2.73576585365854  C 45.7143570731707 2.32916291121951  45.2897716917073 2.0214634302439  44.8951570887805 2.0214634302439  C 44.6603863726829 2.0214634302439  44.4336078204878 2.12935806439024  44.2208156253659 2.3421502595122  Z M 44.2208156253659 7.99363120390244  C 44.0260058692683 8.18944001560976  43.7702555941463 8.28634536585366  43.5145053658537 8.28634536585366  C 43.258755137561 8.28634536585366  43.003004862439 8.18844096  42.807196097561 7.99363120390244  L 39.9819551063415 5.16739120390244  C 39.5923355941463 4.77677268292683  39.5923355941463 4.14439024390244  39.9819551063415 3.75377167609756  C 40.3725736273171 3.36415216390244  41.0049560663415 3.36415216390244  41.3955746341463 3.75377167609756  L 44.2208156253659 6.58001167609756  C 44.610435137561 6.97063019707317  44.610435137561 7.60301263609756  44.2208156253659 7.99363120390244  Z " fill-rule="nonzero" fill="#000000" stroke="none" transform="matrix(1 0 0 1 711 226 )" />
  </g>
</svg>