<?xml version="1.0" encoding="utf-8"?>
<svg version="1.1" xmlns:xlink="http://www.w3.org/1999/xlink" width="23px" height="23px" xmlns="http://www.w3.org/2000/svg">
  <g transform="matrix(1 0 0 1 -62 -83 )">
    <path d="M 12.394 0.980666656249999  L 12.39333334375 0.980000000000001  L 21.40866665625 6.72733334375  C 21.9847617802097 7.09469902231002  22.3334534744351 7.73074081110999  22 8.414  L 22 20.68733334375  C 22.33333334375 21.7919028434116  21.4379028434116 22.68733334375  20.33333334375 22.68733334375  L 12.358 22.68733334375  L 12.35866665625 16.53133334375  L 10.33333334375 16.53133334375  L 10.33333334375 22.68733334375  L 2.33333334375 22.68733334375  C 1.22876384408841 22.68733334375  0.33333334375 21.7919028434116  0.33333334375 20.68733334375  L 0.33333334375 8.24066665625  C 0.333240098317442 7.54847760615356  0.691065891262085 6.9054502826801  1.27933334375 6.54066665625  L 10.26466665625 0.967333343749998  C 10.9180148176288 0.562158458641778  11.7457770645156 0.567341683121796  12.394 0.980666656249999  Z M 20.33333334375 20.68733334375  L 20 20.688  L 20 8.41333334375  L 11.31866665625 2.66666665625  L 2.33333334375 8.24  L 2.33333334375 20.688  L 8.33333334375 20.688  L 8.33333334375 14.53133334375  L 14.35866665625 14.53133334375  L 14.35866665625 20.68733334375  L 20.33333334375 20.68733334375  Z " fill-rule="nonzero" fill="#aaaaaa" stroke="none" transform="matrix(1 0 0 1 62 83 )" />
  </g>
</svg>