<?xml version="1.0" encoding="utf-8"?>
<svg version="1.1" xmlns:xlink="http://www.w3.org/1999/xlink" width="20px" height="19px" xmlns="http://www.w3.org/2000/svg">
  <g transform="matrix(1 0 0 1 -343 -85 )">
    <path d="M 6 6.24933334375  L 9.206 9.454  L 7.79266665625 10.86866665625  L 2.418 5.49733334375  L 7.79133334375 0.12133334375  L 9.206 1.53466665625  L 6.49266665625 4.24933334375  L 12.59933334375 4.24933334375  C 16.43933334375 4.24933334375  19.5626666875 7.3106666875  19.664 11.12533334375  L 19.66666665625 11.31666665625  C 19.66666665625 15.2193333125  16.50266665625 18.3833333125  12.6 18.38333334375  L 0.23333334375 18.38333334375  L 0.23333334375 16.38333334375  L 12.6 16.38333334375  C 15.3982427353525 16.38333334375  17.666666671875 14.1149094072275  17.666666671875 11.316666671875  C 17.666666671875 8.51842393652249  15.3982427353525 6.25  12.6 6.25  L 6 6.24933334375  Z " fill-rule="nonzero" fill="#aaaaaa" stroke="none" transform="matrix(1 0 0 1 343 85 )" />
  </g>
</svg>