<?xml version="1.0" encoding="utf-8"?>
<svg version="1.1" xmlns:xlink="http://www.w3.org/1999/xlink" width="21px" height="24px" xmlns="http://www.w3.org/2000/svg">
  <g transform="matrix(1 0 0 1 -311 -10 )">
    <path d="M 0.184210514802632 4.55813954651163  L 2.3947368305921 4.55813954651163  L 2.3947368305921 21.6744185930233  L 17.5000000115132 21.6744185930233  L 17.5000000115132 24  L 3.49999998848684 24  C 1.72947402738813 23.9069753563955  0.271306188267693 22.5020938877262  0.187894736842105 20.7159069767442  L 0.184210514802632 20.5581395232558  L 0.184210514802632 4.55813954651163  Z M 6.07157895888158 0.10046511627907  L 18.7246315904605 0.100465116279071  C 19.9454715637707 0.100465116279071  20.93515790625 1.10001544223823  21 2.33302325581395  L 21 18.0740465232558  C 20.93515790625 19.3070543368315  19.9454715637707 20.3066046627907  18.7246315904605 20  L 4 20  L 4 2.33302325581395  C 3.86105264309211 1.10001544223823  4.8507389855714 0.10046511627907  6.07157895888158 0.10046511627907  Z M 14.9210526315789 6.79069768604651  L 14.9210526315789 4.55813954651163  L 8.28947368421053 4.55813954651163  L 8.28947368421053 6.79069768604651  L 14.9210526315789 6.79069768604651  Z " fill-rule="nonzero" fill="#ffffff" stroke="none" transform="matrix(1 0 0 1 311 10 )" />
  </g>
</svg>