<?xml version="1.0" encoding="utf-8"?>
<svg version="1.1" xmlns:xlink="http://www.w3.org/1999/xlink" width="12px" height="11px" xmlns="http://www.w3.org/2000/svg">
  <g transform="matrix(1 0 0 1 -202 -178 )">
    <path d="M 0.0571377551020409 10.2982029569892  C 0.0571377551020409 7.9641626344086  1.62448469387755 6.00860215053764  3.84489795918367 5.22007661290323  C 3.25714285714286 4.68387096774194  2.86530612244898 3.89534543010753  2.86530612244898 3.04373252688172  C 2.86530612244898 1.37204301075269  4.26938265306122 0.0157755376344087  6 0.0157755376344087  C 7.73061734693878 0.0157755376344087  9.13469387755102 1.37204301075269  9.13469387755102 3.04373252688172  C 9.13469387755102 3.89534543010753  8.77550510204082 4.68387096774194  8.15510204081633 5.22007661290323  C 10.3755153061224 6.00860215053763  11.942862244898 7.99569892473118  11.942862244898 10.2982029569892  C 11.942862244898 10.6451612903226  11.6489846938776 10.8974959677419  11.322443877551 10.8974959677419  L 0.67755612244898 10.8974959677419  C 0.318367346938776 10.8974959677419  0.0571377551020409 10.613625  0.0571377551020409 10.2982029569892  Z M 1.33060714285714 9.6989247311828  L 10.6693928571429 9.6989247311828  C 10.3428520408163 7.64874059139785  8.38366836734694 6.04013844086021  6 6.04013844086021  C 3.61633163265306 6.04013844086021  1.65714795918367 7.64874059139785  1.33060714285714 9.6989247311828  Z M 4.10612755102041 3.0121814516129  C 4.10612755102041 4.02149059139785  4.95509693877551 4.84158198924731  6 4.84158198924731  C 7.04490306122449 4.84158198924731  7.89387244897959 4.02150537634409  7.89387244897959 3.0121814516129  C 7.89387244897959 2.00285752688172  7.04490306122449 1.18279569892473  6 1.18279569892473  C 4.95509693877551 1.18279569892473  4.10612755102041 2.00287231182796  4.10612755102041 3.0121814516129  Z " fill-rule="nonzero" fill="#333333" stroke="none" transform="matrix(1 0 0 1 202 178 )" />
  </g>
</svg>