<?xml version="1.0" encoding="utf-8"?>
<svg version="1.1" xmlns:xlink="http://www.w3.org/1999/xlink" width="16px" height="16px" xmlns="http://www.w3.org/2000/svg">
  <g transform="matrix(1 0 0 1 -861 -71 )">
    <path d="M 1.55038760465116 0  L 11.9962790697674 0  L 16 4.10939534883721  L 16 14.4496123953488  C 15.9379844883721 15.2716176043993  15.2716176043993 15.9379844883721  14.4496123953488 16  L 1.55038760465116 16  C 0.728382395600679 15.9379844883721  0.0620155116279067 15.2716176043993  0 14.4496123953488  L 0 1.55038760465116  C 0.0620155116279067 0.728382395600679  0.728382395600679 0.0620155116279067  1.55038760465116 0  Z M 3.53488372093023 5.02325581395349  L 3.53488372093023 1.54989146511628  L 1.55038760465116 1.55038760465116  L 1.55038760465116 14.4496123953488  L 3.53488372093023 14.4491162790698  L 3.53488372093023 8.49612402325582  L 12.4651162790698 8.49612402325582  L 12.4651162790698 14.4491162790698  L 14.4496123953488 14.4496123953488  L 14.4496123953488 4.7146666744186  L 12.4651162790698 2.67658913953488  L 12.4651162790698 5.02325581395349  L 3.53488372093023 5.02325581395349  Z M 10.9767441860465 14.4491162790698  L 10.9767441860465 9.98449611627907  L 5.02325581395349 9.98449611627907  L 5.02325581395349 14.4491162790698  L 10.9767441860465 14.4491162790698  Z M 6.01550388372093 11.4728682093023  L 9.98449611627907 11.4728682093023  L 9.98449611627907 12.9612403023256  L 6.01550388372093 12.9612403023256  L 6.01550388372093 11.4728682093023  Z M 10.9767441860465 3.53488372093023  L 10.9767441860465 1.55038760465116  L 5.02325581395349 1.55038760465116  L 5.02325581395349 3.53488372093023  L 10.9767441860465 3.53488372093023  Z " fill-rule="nonzero" fill="#000000" stroke="none" transform="matrix(1 0 0 1 861 71 )" />
  </g>
</svg>