<?xml version="1.0" encoding="utf-8"?>
<svg version="1.1" xmlns:xlink="http://www.w3.org/1999/xlink" width="12px" height="12px" xmlns="http://www.w3.org/2000/svg">
  <g transform="matrix(1 0 0 1 -224 -177 )">
    <path d="M 7.71428571428572 9  C 7.71428571428572 9.237  7.52271428571429 9.42857142857143  7.28571428571428 9.42857142857143  C 7.04871428571429 9.42857142857143  6.85714285714286 9.237  6.85714285714286 9  L 6.85714285714286 4.28571428571429  C 6.85714285714286 4.04871428571429  7.04871428571429 3.85714285714286  7.28571428571428 3.85714285714286  C 7.52271428571429 3.85714285714286  7.71428571428572 4.04871428571429  7.71428571428572 4.28571428571429  L 7.71428571428572 9  Z M 5.14285714285714 9  C 5.14285714285714 9.237  4.95128571428571 9.42857142857143  4.71428571428571 9.42857142857143  C 4.47728571428571 9.42857142857143  4.28571428571429 9.237  4.28571428571429 9  L 4.28571428571429 4.28571428571429  C 4.28571428571429 4.04871428571429  4.47728571428571 3.85714285714286  4.71428571428571 3.85714285714286  C 4.95128571428571 3.85714285714286  5.14285714285714 4.04871428571429  5.14285714285714 4.28571428571429  L 5.14285714285714 9  Z M 12 2.57142857142857  C 12 2.33442857142857  11.8084285714286 2.14285714285714  11.5714285714286 2.14285714285714  L 9.42857142857143 2.14285714285714  L 9.42857142857143 1.28571428571429  C 9.42857142857143 0.576857142857143  8.85642857142857 0  8.15271428571429 0  L 3.85714285714286 0  C 3.14828571428571 0  2.57142857142857 0.576857142857143  2.57142857142857 1.28571428571429  L 2.57142857142857 2.14285714285714  L 0.428571428571429 2.14285714285714  C 0.191571428571429 2.14285714285714  0 2.33442857142857  0 2.57142857142857  C 0 2.80842857142857  0.191571428571429 3  0.428571428571429 3  L 11.5714285714286 3  C 11.8084285714286 3  12 2.80842857142857  12 2.57142857142857  Z M 3.42857142857143 2.14285714285714  L 3.42857142857143 1.28571428571429  C 3.42857142857143 1.04957142857143  3.621 0.857142857142857  3.85714285714286 0.857142857142857  L 8.15271428571429 0.857142857142857  C 8.38757142857143 0.857142857142857  8.57142857142857 1.04528571428571  8.57142857142857 1.28571428571429  L 8.57142857142857 2.14285714285714  L 3.42857142857143 2.14285714285714  Z M 10.2874285714286 10.7142857142857  C 10.2874285714286 11.4231428571429  9.71057142857143 12  9.00171428571429 12  L 3.00085714285714 12  C 2.292 12  1.71514285714286 11.4231428571429  1.71514285714286 10.7142857142857  L 1.71514285714286 4.27928571428571  C 1.71514285714286 4.04271428571429  1.90714285714286 3.85071428571429  2.14371428571429 3.85071428571429  C 2.38028571428571 3.85071428571429  2.57228571428571 4.04271428571429  2.57228571428571 4.27928571428571  L 2.57228571428571 10.7142857142857  C 2.57228571428571 10.9508571428571  2.76471428571429 11.1428571428571  3.00085714285714 11.1428571428571  L 9.00171428571429 11.1428571428571  C 9.23828571428571 11.1428571428571  9.43028571428571 10.9508571428571  9.43028571428571 10.7142857142857  L 9.43028571428571 4.29685714285714  C 9.43028571428571 4.06028571428571  9.62185714285714 3.86828571428571  9.85885714285714 3.86828571428571  C 10.0958571428571 3.86828571428571  10.2874285714286 4.06028571428571  10.2874285714286 4.29685714285714  L 10.2874285714286 10.7142857142857  Z " fill-rule="nonzero" fill="#000000" stroke="none" transform="matrix(1 0 0 1 224 177 )" />
  </g>
</svg>