<?xml version="1.0" encoding="utf-8"?>
<svg version="1.1" xmlns:xlink="http://www.w3.org/1999/xlink" width="32px" height="32px" xmlns="http://www.w3.org/2000/svg">
  <g transform="matrix(1 0 0 1 -4 -5 )">
    <path d="M 0.226950340425531 16  C 0.226950340425531 7.29136230434782  7.13622693617021 0.231884043478261  15.6595744680851 0.231884043478261  C 17.8809645531915 0.231884043478261  19.9916028510638 0.711420260869566  21.8998014042553 1.574029  C 21.4368825070621 2.39828694546978  21.1686239817035 3.32155500402235  21.1163688085106 4.27037682608696  C 20.2220412131453 3.83344141300624  19.2801134706318 3.50651658480174  18.3103545957447 3.2964637826087  C 19.5067255213167 4.71594464243229  20.49671400154 6.30412148022367  21.2498156170213 8.01205795652174  L 21.9687943404255 8.01205795652174  C 22.4 8.89785504347826  22.9855319148936 9.79478260869565  23.7099574468085 10.6982029130435  L 23.7889361702128 10.7955942173913  L 22.2338723404255 10.7955942173913  C 22.5661276595745 12.0217971304348  22.783092212766 13.2971594347826  22.8738723404255 14.6086956521739  L 28.297078 14.6086956521739  C 28.2607659574468 14.2645796956522  28.2117446808511 13.9241739130435  28.1500141702128 13.5884057826087  L 28.6329645531915 13.1737970869565  L 28.8880567234043 12.9428405652174  L 29.2720567234043 12.5792463913043  C 29.6687659574468 12.1924637826087  30.0527659574468 11.7899130434783  30.4167943404255 11.374376826087  C 30.856170212766 12.8361739130435  31.0921985957447 14.3897970869565  31.0921985957447 16  C 31.0921985957447 18.8493913043478  30.3523404255319 21.521623173913  29.0587234042553 23.8284057826087  L 29.0587234042553 23.8840579565217  L 29.0269503404255 23.8840579565217  C 26.3580141702128 28.5987246521739  21.3714609787234 31.7681159565217  15.6595744680851 31.7681159565217  C 7.13622693617021 31.7681159565217  0.226950340425531 24.7086376956522  0.226950340425531 16  Z M 15.6595744680851 28.9855072608696  C 15.7893900851064 28.9855072608696  15.9192056595745 28.983652173913  16.0490212765957 28.9799420434783  L 15.6595744680851 28.9855072608696  Z M 15.3754326382979 28.9827246521739  L 15.6595744680851 28.9855072608696  L 15.5170496595745 28.9855072608696  L 15.6595744680851 28.9855072608696  L 15.3754326382979 28.9827246521739  Z M 16.1552340425532 28.9762318695652  C 16.2832340425532 28.9706666521739  16.4094184255319 28.9641739130435  16.5365106382979 28.9548985652174  L 16.1552340425532 28.9762318695652  Z M 16.9359432765957 28.9205796956522  L 16.6236595744681 28.9484057826087  C 16.7280567234043 28.9409854782609  16.8324539148936 28.9317101304348  16.9368510638298 28.9205796956522  Z M 17.4107234042553 28.8630724782609  L 17.033078 28.910376826087  C 17.160170212766 28.8964637826087  17.2854468085106 28.8806956521739  17.4107234042553 28.864  Z M 17.4933333191489 28.8519420434783  L 17.8364822553191 28.7962898695652  L 17.4933333191489 28.8519420434783  Z M 13.7068936170213 28.8324637826087  L 13.4853900851064 28.7953623043478  L 13.5906950212766 28.8139130434783  L 13.7068936170213 28.8324637826087  Z M 13.1649361702128 28.7350724782609  L 13.0786950212766 28.7165217391304  L 13.115007106383 28.7257970869565  L 13.1649361702128 28.7350724782609  Z M 13.0786950212766 28.7165217391304  L 13.064170212766 28.7146666521739  L 13.0786950212766 28.7165217391304  Z M 13.0087943404255 28.701681173913  C 11.7881998571115 27.2539028077857  10.7825016898831 25.6306811674032  10.0239432765957 23.8840579565217  L 5.5611914893617 23.8840579565217  C 7.40184638712273 26.3461731643889  10.0433189787576 28.0548598304274  13.0087943404255 28.701681173913  Z M 18.312170212766 28.6998260869565  C 21.2769667054534 28.0536914810543  23.9178927052431 26.3455997958022  25.7579574468085 23.8840579565217  L 21.2952056595745 23.8840579565217  C 20.5371783862202 25.6299851726644  19.5320903480233 27.2525843770448  18.312170212766 28.6998260869565  Z M 15.6595744680851 27.5478260869565  C 16.6863854988829 26.4527305080638  17.5628603052369 25.2202085601967  18.2649645531915 23.8840579565217  L 13.0541843829787 23.8840579565217  C 13.7562791072866 25.2202146680567  14.6327548093678 26.4527378755189  15.6595744680851 27.5478260869565  Z M 27.3502411489362 21.1014492608696  C 27.8446362157291 19.9197703791076  28.1634652449619 18.6692517660633  28.296170212766 17.3913043478261  L 22.8738723404255 17.3913043478261  C 22.7875874024272 18.6453635966437  22.5823698495754 19.8879046525352  22.2611063829787 21.1014492608696  L 27.3502411489362 21.1014492608696  Z M 19.4215035319149 21.1014492608696  C 19.7937021276596 19.9169854782609  20.0388085106383 18.6750144782609  20.1422978723404 17.3913043478261  L 11.1768510638298 17.3913043478261  C 11.2781592057985 18.652014039096  11.5199894852958 19.8967871053875  11.8976454042553 21.1014492608696  L 19.4215035319149 21.1014492608696  Z M 9.05804255319149 21.1014492608696  C 8.73676231494059 19.887908406764  8.53154448508145 18.6453656736622  8.44527659574468 17.3913043478261  L 3.02297872340426 17.3913043478261  C 3.15568369120833 18.6692517660633  3.47451272044115 19.9197703791076  3.96890778723404 21.1014492608696  L 9.05804255319149 21.1014492608696  Z M 8.44527659574468 14.6077681304348  C 8.53605672340425 13.2962319130435  8.75392906382979 12.0208695652174  9.08527659574468 10.7937391304348  L 4.01248225531915 10.7937391304348  C 3.49319212915947 12.005720490418  3.15945518466248 13.2921053729657  3.02297872340425 14.6077681304348  L 8.44527659574468 14.6077681304348  Z M 20.1422978723404 14.6077681304348  C 20.038164105695 13.3106673415682  19.7852730252414 12.0305536422904  19.3888226808511 10.7937391304348  L 11.9303262553191 10.7937391304348  C 11.5338759109288 12.0305536422904  11.2809848304752 13.3106673415682  11.1768510638298 14.6077681304348  L 20.1422978723404 14.6077681304348  Z M 22.9219858297872 4.62655073913044  C 22.9219858297872 2.19826086956522  24.9037162978723 0.231884043478261  27.3475177446809 0.231884043478261  C 29.7913191489362 0.231884043478261  31.7730496595745 2.19918839130435  31.7730496595745 4.62655073913043  L 31.7703262553191 4.78144926086957  C 31.7158581702128 6.23304347826087  30.907007106383 7.8664347826087  29.5798014042553 9.52301447826087  C 28.9022316162032 10.3642690521856  28.1554096000262 11.1447038227796  27.3475177446809 11.8557681304348  C 27.1181599594086 11.6554709925314  26.8941534814039 11.4488638421365  26.6757446808511 11.2361739130435  C 26.1214556980697 10.6983006772804  25.6000023933768 10.1261717500654  25.1143262553191 9.52301447826087  C 23.7880283829787 7.8664347826087  22.980085106383 6.23304347826087  22.9247092340426 4.78144926086957  C 22.9228290092463 4.72983905084572  22.9219210397252 4.67819664912127  22.9219858297872 4.62655073913044  Z M 18.2104964680851 8.01205795652174  C 17.5175486114659 6.71568896794533  16.6598007962486 5.51867754983044  15.6595744680851 4.45217391304348  L 15.5188652340426 4.60428986956522  C 14.5784680215337 5.6325299163866  13.7686803793157 6.77778964374351  13.1086524680851 8.01298552173913  L 18.2104964680851 8.01205795652174  Z M 10.0684255319149 8.01298552173913  C 10.8212549052262 6.3056765047622  11.8109427588231 4.71811621287206  13.0069787234043 3.29924639130435  L 12.8980425531915 3.3224347826087  C 10.0187641332705 3.97788687343763  7.45224748096264 5.63613673913941  5.63835459574468 8.01298552173913  L 10.0684255319149 8.01298552173913  Z M 27.3475177446809 3.4615652173913  C 26.6491164639283 3.4615652173913  26.0829503617021 4.04003927836149  26.0829503617021 4.75362319565217  C 26.0829503617021 5.46720711294286  26.6491164639283 6.04568117391304  27.3475177446809 6.04568117391304  C 28.0459190254334 6.04568117391304  28.6120851276596 5.46720711294286  28.6120851276596 4.75362319565217  C 28.6120851276596 4.04003927836149  28.0459190254334 3.4615652173913  27.3475177446809 3.4615652173913  Z M 18.2549787234043 3.28533334782609  L 18.2340992765957 3.28162317391304  L 18.2549787234043 3.28533334782609  Z M 18.0706950212766 3.24823186956522  L 17.8845957446808 3.21298552173913  L 18.2340992765957 3.28162317391304  L 18.0706950212766 3.24823186956522  Z M 17.8437446808511 3.2055652173913  C 17.7438865106383 3.18794204347826  17.6440283829787 3.17124639130435  17.5432624255319 3.1564057826087  L 17.8437446808511 3.2055652173913  Z M 13.7777021276596 3.15547826086957  L 13.8258156170213 3.14898552173913  L 13.7777021276596 3.15547826086957  Z M 17.3716879574468 3.13136230434783  C 17.2587034259739 3.11589637321215  17.1455206307892 3.10198207410643  17.032170212766 3.08962317391304  L 17.3716879574468 3.13136230434783  Z M 16.9432056595745 3.07942030434782  C 16.8362038710783 3.06876463101846  16.7290747804928 3.05948853069142  16.6218439574468 3.0515942173913  L 16.9432056595745 3.07942030434782  Z M 14.6963971489362 3.0515942173913  L 14.5339007234043 3.06457969565217  L 14.6146950212766 3.05808695652174  L 14.532992893617 3.06457969565217  L 14.6963971489362 3.0515942173913  Z M 16.5356028510638 3.04510143478261  C 16.4092257239109 3.0360788626525  16.2827248761814 3.02896698308238  16.1561418297872 3.02376813043478  L 16.5356028510638 3.04510143478261  Z M 15.0931063829787 3.02747826086956  L 15.163007106383 3.02376813043478  L 15.0931063829787 3.02747826086956  Z M 15.2619574468085 3.02098552173913  L 15.6595744680851 3.01449273913044  C 15.5270354468085 3.01449273913044  15.3944964680851 3.01634782608696  15.2619574468085 3.02098552173913  Z M 15.8020992765957 3.01542030434783  L 15.6595744680851 3.01449273913044  L 15.9437162978723 3.01727534782609  L 15.8020992765957 3.01542030434783  Z " fill-rule="nonzero" fill="#f2f2f2" stroke="none" transform="matrix(1 0 0 1 4 5 )" />
  </g>
</svg>