<?xml version="1.0" encoding="utf-8"?>
<svg version="1.1" xmlns:xlink="http://www.w3.org/1999/xlink" width="21px" height="24px" xmlns="http://www.w3.org/2000/svg">
  <g transform="matrix(1 0 0 1 -565 -9 )">
    <path d="M 10.5 15.33333334375  C 11.99625 15.33333334375  13.3940625 14.91  14.58515625 14.174  L 19.52671875 20.032  C 19.8324355189246 20.394451436159  20.0004719159104 20.8560237954564  20.0004719159104 21.3333333446586  C 20.0004719159104 22.4378793011223  19.1190686856539 23.333300049246  18.0317812602539 23  L 2.96821873974609 23  C 1.88093131434607 23.333300049246  0.999528084089629 22.4378793011223  0.999528084089629 21.3333333446586  C 0.999528084089629 20.8560237954564  1.1675644810754 20.394451436159  1.47328125 20.032  L 6.41549998974609 14.17466665625  C 7.6463353668901 14.9348145085711  9.05956289473975 15.3357104944363  10.5 15.33333334375  Z M 3.93750001025391 7.33333334375  C 3.93750001025391 3.65133334375  6.87553125 0.66666665625  10.5 0.66666665625  C 14.12446875 0.66666665625  17.0624999897461 3.6513333125  17.0624999897461 7.33333334375  C 17.0624999897461 11.015333375  14.12446875 14  10.5 14  C 6.87553125 14  3.93750001025391 11.01533334375  3.93750001025391 7.33333334375  Z " fill-rule="nonzero" fill="#ffffff" stroke="none" transform="matrix(1 0 0 1 565 9 )" />
  </g>
</svg>