<?xml version="1.0" encoding="utf-8"?>
<svg version="1.1" xmlns:xlink="http://www.w3.org/1999/xlink" width="48px" height="47px" xmlns="http://www.w3.org/2000/svg">
  <g transform="matrix(1 0 0 1 -906 -146 )">
    <path d="M 0.228551020408164 44.0014126344086  C 0.228551020408164 34.0286948924731  6.4979387755102 25.6731182795699  15.3795918367347 22.3039637096774  C 13.0285714285714 20.0129032258065  11.4612244897959 16.643748655914  11.4612244897959 13.0050389784946  C 11.4612244897959 5.86236559139785  17.0775306122449 0.0674045698924736  24 0.0674045698924736  C 30.9224693877551 0.0674045698924736  36.5387755102041 5.86236559139785  36.5387755102041 13.0050389784946  C 36.5387755102041 16.643748655914  35.1020204081633 20.0129032258065  32.6204081632653 22.3039637096774  C 41.5020612244898 25.6731182795699  47.7714489795918 34.163440860215  47.7714489795918 44.0014126344086  C 47.7714489795918 45.4838709677419  46.5959387755102 46.5620282258065  45.2897755102041 46  L 2.71022448979592 46  C 1.2734693877551 46.5620282258065  0.228551020408164 45.349125  0.228551020408164 44.0014126344086  Z M 5.32242857142857 41  L 42.6775714285714 41  C 41.3714081632653 32.6809825268817  33.5346734693878 25.8078642473118  24 25.8078642473118  C 14.4653265306122 25.8078642473118  6.62859183673469 32.6809825268817  5.32242857142857 41  Z M 16.4245102040816 12.8702298387097  C 16.4245102040816 17.1827325268817  19.820387755102 20.6867594086022  24 20.6867594086022  C 28.179612244898 20.6867594086022  31.5754897959184 17.1827956989247  31.5754897959184 12.8702298387097  C 31.5754897959184 8.55766397849463  28.179612244898 5.05376344086022  24 5.05376344086022  C 19.820387755102 5.05376344086022  16.4245102040816 8.55772715053763  16.4245102040816 12.8702298387097  Z " fill-rule="nonzero" fill="#333333" stroke="none" transform="matrix(1 0 0 1 906 146 )" />
  </g>
</svg>