<?xml version="1.0" encoding="utf-8"?>
<svg version="1.1" xmlns:xlink="http://www.w3.org/1999/xlink" width="35px" height="47px" xmlns="http://www.w3.org/2000/svg">
  <g transform="matrix(1 0 0 1 -980 -146 )">
    <path d="M 34.7717391259766 23.5  C 34.7717391259766 21.7630434902344  33.7826087060547 20.3326086796875  32.4130434619141 21  L 19.782608671875 21  L 19.782608671875 3.37173910449219  C 19.782608671875 1.63478259472656  18.7173912939453 0.204347784179688  17.4239130078125 0.204347784179688  C 16.1304347558594 0.204347784179688  15.06521734375 1.63478254882813  15 3.37173910449219  L 15 21  L 2.43478255371094 21  C 1.14130430175781 20.3326086796875  0.0760868896484374 21.7630434443359  0.0760868896484374 23.5  C 0.0760868896484374 25.2369565097656  1.14130426757812 26.6673913203125  2.43478255371094 26  L 15 26  L 15 43.6282608955078  C 15.06521734375 45.3652174052734  16.1304347216797 46.7956522158203  17.4239130078125 46.7956522158203  C 18.7173912597656 46.7956522158203  19.782608671875 45.3652174511719  19.782608671875 43.6282608955078  L 19.782608671875 26  L 32.4130434619141 26  C 33.7065217138672 26.6673913203125  34.7717391259766 25.2369565556641  34.7717391259766 23.5  Z " fill-rule="nonzero" fill="#7f7f7f" stroke="none" transform="matrix(1 0 0 1 980 146 )" />
  </g>
</svg>