<?xml version="1.0" encoding="utf-8"?>
<svg version="1.1" xmlns:xlink="http://www.w3.org/1999/xlink" width="18px" height="11px" xmlns="http://www.w3.org/2000/svg">
  <g transform="matrix(1 0 0 1 -200 -236 )">
    <path d="M 0.507063829787235 4.62293332678571  C 3.06893616223404 1.57603810178571  5.90042553989362 0.0523809589285712  9 0.0523809589285712  C 12.1582978803191 0.0523809589285712  15.0377872260638 1.63386667321429  17.6379574547872 4.79683810178571  C 17.9650429716898 5.1947911433582  17.9874317517642 5.71086162985121  17.6956595664894 6.12689524464286  L 17.6379574547872 6.20316189821429  L 17.4929361702128 6.37706667321429  C 14.931063837766 9.42396189821429  12.0995744601064 10.9476190410714  9 10.9476190410714  C 5.84170211968085 10.9476190410714  2.96221277393617 9.36613332678572  0.362042545212766 6.20316189821429  C 0.0349570283101548 5.80520885664179  0.012568248235772 5.28913837014879  0.304340433510639 4.87310475535714  L 0.362042545212766 4.79683810178571  L 0.507063829787235 4.62293332678571  Z M 16.227063837766 5.33112381607143  C 13.9291914973404 2.59977142857143  11.5297021196809 1.30952381607143  9 1.30952381607143  C 6.46825531117021 1.30952381607143  4.06825532712766 2.60102857142857  1.77242553191489 5.33154285714286  L 1.63199999202128 5.5  L 1.77293616223404 5.66887618392857  C 4.07080850265957 8.40022857142857  6.47029788031915 9.69047618392857  9 9.69047618392857  C 11.5317446888298 9.69047618392857  13.9317446728723 8.39897142857143  16.2275744680851 5.66845714285714  L 16.3680000079787 5.5  L 16.227063837766 5.33112381607143  Z M 5.65503156469183 5.61041904107143  C 5.65503156469183 4.08886178739932  7.14601779850259 2.85018853081347  9 2.83150475535714  C 9.01386093485727 2.83136506976886  9.027722784187 2.831295225  9.04158476415986 2.831295225  C 10.9119264507168 2.831295225  12.4281379636279 4.07555133956362  12.4281379636279 5.61041904107143  C 12.4281379636279 7.14528674257924  10.9119264507168 8.38954285714286  9.04158476415986 8.38954285714286  C 9.027722784187 8.38954285714286  9.01386093485727 8.389473012374  9 8.38933332678572  C 7.14601779850259 8.37064955132939  5.65503156469183 7.13197629474354  5.65503156469183 5.61041904107143  Z M 10.8238647173209 5.61041904107143  C 10.8238647173209 4.77969801286593  10.0121512530987 4.10243157621125  9 4.0886476125  C 8.98974301982092 4.08850792799915  8.97948480391668 4.08843808214286  8.96922641146985 4.08843808214286  C 7.94493795869628 4.08843808214286  7.11458810561878 4.76985216792233  7.11458810561878 5.61041904107143  C 7.11458810561878 6.45098591422052  7.94493795869628 7.1324  8.96922641146985 7.1324  C 8.97948480391668 7.1324  8.98974301982092 7.13233015414371  9 7.13219046964285  C 10.0121512530987 7.11840650593161  10.8238647173209 6.44114006927692  10.8238647173209 5.61041904107143  Z " fill-rule="nonzero" fill="#555555" stroke="none" transform="matrix(1 0 0 1 200 236 )" />
  </g>
</svg>