<?xml version="1.0" encoding="utf-8"?>
<svg version="1.1" xmlns:xlink="http://www.w3.org/1999/xlink" width="16px" height="11px" xmlns="http://www.w3.org/2000/svg">
  <g transform="matrix(1 0 0 1 -225 -166 )">
    <path d="M 11.390859375 9.12564307228916  L 9.142859375 9.12564307228916  L 9.142859375 10.9431942771084  L 11.390859375 10.9431942771084  C 13.936 10.9431942771084  16 8.50164156626506  16 5.49055722891566  C 16 2.47947289156626  13.936 0.0378704819277109  11.390859375 0.0378704819277109  L 9.145140625 0.0378704819277109  L 9.145140625 1.85542168674699  L 11.390859375 1.85542168674699  C 13.088 1.85542168674699  14.464 3.48272590361446  14.464 5.4905406626506  C 14.464 7.49835542168675  13.088 9.12564307228916  11.390859375 9.12564307228916  Z M 6.857140625 1.85542168674699  L 4.537140625 1.85542168674699  C 2.867421875 1.85542168674699  1.513140625 3.48272590361446  1.513140625 5.4905406626506  C 1.513140625 7.49835542168675  2.867421875 9.12564307228916  4.538296875 9.12564307228916  L 6.856 9.12564307228916  L 6.856 10.9431942771084  L 4.53828125 10.9431942771084  C 2.032 10.9431942771084  0 8.50164156626506  0 5.49055722891566  C 0 2.47947289156626  2.032 0.0378870481927711  4.537140625 0.0378870481927711  L 6.857140625 0.0378870481927711  L 6.857140625 1.85542168674699  Z M 4.571421875 5.36935843373494  C 4.571421875 5.85404317269076  4.79999479166667 6.09638554216868  5.257140625 6.09638554216868  L 10.742859375 6.09638554216868  C 11.2000052083333 6.09638554216868  11.428578125 5.85404317269076  11.428578125 5.36935843373494  C 11.428578125 4.88468473895582  11.2000052083333 4.64234789156627  10.742859375 4.64234789156626  L 5.257140625 4.64234789156626  C 4.79999479166667 4.64234789156627  4.571421875 4.88468473895582  4.571421875 5.36935843373494  Z " fill-rule="nonzero" fill="#555555" stroke="none" transform="matrix(1 0 0 1 225 166 )" />
  </g>
</svg>